<svg width="276" height="51" viewBox="0 0 276 51" fill="none" xmlns="http://www.w3.org/2000/svg">
<path d="M97.3168 5.87201C90.1168 5.87201 87.0928 11.416 87.0928 11.416V6.73601H81.4768V40H87.5248V17.104C87.5248 17.104 90.4048 11.488 95.8048 11.488C100.269 11.488 103.797 13.936 103.797 19.624V40H109.845V18.616C109.845 10.408 103.941 5.87201 97.3168 5.87201Z" fill="black"/>
<path d="M133.422 5.87201C123.414 5.87201 116.79 13.648 116.79 23.368C116.79 33.232 124.062 40.864 134.142 40.864C142.926 40.864 147.966 34.312 147.966 34.312L144.15 30.352C144.15 30.352 140.694 35.248 134.142 35.248C127.878 35.248 123.054 30.568 122.694 25.528H149.55C149.622 24.736 149.622 24.232 149.622 23.584C149.622 12.856 142.71 5.87201 133.422 5.87201ZM122.838 20.488C123.27 17.032 126.222 11.488 133.422 11.488C140.118 11.488 143.502 16.744 143.718 20.488H122.838Z" fill="black"/>
<path d="M154.196 6.73601L165.572 22.864L153.476 40H160.244L169.244 26.968L178.388 40H185.516L173.564 22.864L184.724 6.73601H178.028L169.676 18.976L161.252 6.73601H154.196Z" fill="black"/>
<path d="M204.255 40.864C211.455 40.864 214.479 34.888 214.479 34.888V40H220.095V6.73601H214.047V29.776C214.047 29.776 211.383 35.248 205.767 35.248C201.303 35.248 197.775 32.8 197.775 27.112V6.73601H191.727V28.12C191.727 36.328 197.631 40.864 204.255 40.864Z" fill="black"/>
<path d="M264.48 5.87201C257.208 5.87201 254.544 12.064 254.544 12.064C254.544 12.064 252.456 5.87201 244.176 5.87201C237.408 5.87201 234.96 11.632 234.96 11.632V6.73601H229.344V40H235.392V16.816C235.392 16.816 237.624 11.488 242.52 11.488C246.84 11.488 249.648 14.152 249.648 19.552V40H255.696V16.816C255.696 16.816 257.856 11.488 262.824 11.488C267.144 11.488 269.952 14.152 269.952 19.552V40H276V18.616C276 10.408 271.392 5.87201 264.48 5.87201Z" fill="black"/>
<path fill-rule="evenodd" clip-rule="evenodd" d="M13.2165 1.17182C14.7786 2.73391 14.7786 5.26657 13.2165 6.82867C6.26116 13.784 6.26116 25.0628 13.2165 32.0181C20.1732 38.9748 31.4517 38.9745 38.407 32.0183C39.969 30.4561 42.5016 30.4559 44.0638 32.0179C45.626 33.5799 45.6262 36.1126 44.0642 37.6748C33.9845 47.7559 17.6403 47.7556 7.55968 37.675C-2.51989 27.5954 -2.51989 11.2514 7.55968 1.17182C9.12178 -0.39028 11.6544 -0.39028 13.2165 1.17182Z" fill="#49A2F4"/>
<path fill-rule="evenodd" clip-rule="evenodd" d="M19.5513 13.2335C29.6319 3.15296 45.9759 3.15262 56.0557 13.2335C66.1352 23.3131 66.1352 39.6571 56.0557 49.7367C54.4936 51.2988 51.9609 51.2988 50.3988 49.7367C48.8367 48.1746 48.8367 45.6419 50.3988 44.0798C57.3542 37.1245 57.3542 25.8458 50.3988 18.8904L50.3986 18.8902C43.4434 11.934 32.1648 11.9337 25.2082 18.8904C23.6461 20.4525 21.1134 20.4525 19.5513 18.8904C17.9892 17.3283 17.9892 14.7956 19.5513 13.2335Z" fill="#A2D6FC"/>
</svg>
